# xmcd CD database file
#
# Track frame offsets:
#	150
#	10776
#	23389
#	36066
#	49593
#	61157
#	76062
#	88092
#	99931
#	112304
#	124923
#	137766
#	149301
#	161071
#	174340
#	187104
#	199184
#	211313
#	224867
#	238399
#	251328
#	265435
#	278487
#	291164
#	303212
#	315573
#	328556
#
# Disc length: 4534 seconds
#
# Revision: 0
# Processed by: cddbd v1.5.2PL0 Copyright (c) Steve Scherf et al.
# Submitted via: CDex 1.70beta2
#
DISCID=8711b41b
DTITLE=Jimmy O'Bryant - Mystery man of jazz
DYEAR=2002
DGENRE=Jazz
TTITLE0=Red Hot Mama
TTITLE1=Drunk Man's Strut
TTITLE2=Washboard Blues
TTITLE3=Brand New Charleston
TTITLE4=Skoodlum Blues
TTITLE5=Midnight Strutters
TTITLE6=Georgia Breakdown (Snooping Blues)
TTITLE7=Blue-Eyed Sally
TTITLE8=Three J Blues
TTITLE9=Steppin' on the Gas
TTITLE10=Hot Hot Hottentot
TTITLE11=Alabamy Bound
TTITLE12=Clarinet Getaway
TTITLE13=Back Alley Rub
TTITLE14=The Joys (Slow Motion Special)
TTITLE15=Everybody Pile
TTITLE16=Charleston Fever
TTITLE17=Switch It Miss Mitchell
TTITLE18=Down to the Bricks
TTITLE19=I Found a Good Man After All
TTITLE20=Milenberg Joys
TTITLE21=Sugar Babe
TTITLE22=Thirty-Eight and Two (It Must Be Forty)
TTITLE23=Please Don't Break 'Em Down
TTITLE24=Chicago Skiffle
TTITLE25=My Man Rocks Me
TTITLE26=Shake That Thing
EXTD=YEAR: 2002
EXTT0=
EXTT1=
EXTT2=
EXTT3=
EXTT4=
EXTT5=
EXTT6=
EXTT7=
EXTT8=
EXTT9=
EXTT10=
EXTT11=
EXTT12=
EXTT13=
EXTT14=
EXTT15=
EXTT16=
EXTT17=
EXTT18=
EXTT19=
EXTT20=
EXTT21=
EXTT22=
EXTT23=
EXTT24=
EXTT25=
EXTT26=
PLAYORDER=
